<?xml version="1.0" standalone="no"?>
<!DOCTYPE svg PUBLIC "-//W3C//DTD SVG 20010904//EN"
 "http://www.w3.org/TR/2001/REC-SVG-20010904/DTD/svg10.dtd">
<svg version="1.0" xmlns="http://www.w3.org/2000/svg"
 width="300.000000pt" height="300.000000pt" viewBox="0 0 300.000000 300.000000"
 preserveAspectRatio="xMidYMid meet">
<metadata>
Created by potrace 1.14, written by Peter Selinger 2001-2017
</metadata>
<g transform="translate(0.000000,300.000000) scale(0.100000,-0.100000)"
fill="#000000" stroke="none">
<path d="M1336 2485 c-189 -72 -319 -346 -242 -507 l18 -38 -31 -37 c-123
-146 -226 -307 -307 -476 -60 -129 -78 -203 -71 -302 11 -155 71 -265 187
-343 89 -60 89 -60 2 -82 -105 -27 -180 -155 -152 -261 6 -22 29 -60 51 -84
39 -42 39 -42 39 -126 0 -82 -15 -163 -39 -207 -10 -18 -9 -22 4 -22 9 0 18 7
21 15 4 8 12 15 20 15 8 0 14 -7 14 -15 0 -12 18 -15 100 -15 l100 0 0 85 c0
84 17 145 40 145 23 0 42 -53 48 -137 l7 -88 478 -3 477 -2 1 52 0 53 24 -52
24 -53 116 0 c64 0 115 3 113 8 -2 4 -19 39 -39 77 -40 77 -64 146 -78 217 -7
43 -6 49 15 69 61 57 84 172 51 250 -34 81 -130 157 -220 173 l-38 7 30 35
c169 191 124 559 -107 884 -99 140 -291 314 -385 349 -25 10 -26 11 -13 43 54
130 7 306 -93 358 -55 27 -117 33 -165 15z m-16 -83 c0 -15 -24 -32 -47 -32
-25 0 -29 10 -11 28 13 13 58 16 58 4z m-80 -50 c0 -13 -50 -82 -60 -82 -5 0
-17 -11 -25 -24 -15 -22 -15 -27 0 -55 25 -48 1 -152 -26 -110 -5 8 -9 41 -9
74 0 67 25 133 67 178 25 26 53 36 53 19z m-20 -111 c0 -5 -7 -12 -16 -15 -22
-9 -24 -8 -24 9 0 8 9 15 20 15 11 0 20 -4 20 -9z m336 -233 c-15 -22 -14 -23
21 -45 21 -13 34 -23 28 -23 -5 1 -27 11 -47 23 l-37 23 22 22 c28 28 32 28
13 0z m59 0 c30 -13 31 -21 8 -39 -16 -13 -17 -12 -5 3 12 14 10 19 -15 32
-33 18 -25 21 12 4z m-604 -250 c-80 -123 -164 -306 -196 -428 -24 -92 -25
-221 -1 -290 16 -47 36 -72 139 -173 66 -65 117 -120 114 -124 -13 -12 -158
68 -208 114 -62 58 -98 117 -115 192 -29 122 -9 224 82 411 58 119 186 330
201 330 3 0 -5 -15 -16 -32z m575 -18 c33 -13 74 -68 74 -100 0 -63 -62 -85
-335 -122 -231 -31 -289 -17 -317 74 -10 35 -9 41 12 63 44 47 164 79 345 94
101 9 182 5 221 -9z m-111 -594 c10 -107 -1 -125 -72 -126 -22 0 -23 3 -23 94
0 102 0 102 62 105 26 1 26 -1 33 -73z m-105 -31 c0 -52 -4 -95 -9 -95 -14 0
-42 30 -52 57 -5 13 -9 46 -9 73 0 50 2 53 58 59 9 1 12 -24 12 -94z m-360
-432 c0 -13 5 -34 11 -46 10 -21 10 -21 -5 -3 -9 11 -16 31 -17 45 0 24 -1 24
-9 6 -8 -18 -9 -17 -9 7 -1 20 3 26 14 22 8 -4 15 -17 15 -31z m-191 -71 c-19
-21 -36 -37 -38 -35 -5 3 59 73 67 73 2 0 -11 -17 -29 -38z m200 -37 c9 -12 4
-8 -11 7 -16 16 -28 34 -28 41 0 6 6 3 12 -8 6 -11 18 -29 27 -40z m911 41 c0
-2 -8 -10 -17 -17 -16 -13 -17 -12 -4 4 13 16 21 21 21 13z m-875 -26 c10 -11
16 -20 13 -20 -3 0 -13 9 -23 20 -10 11 -16 20 -13 20 3 0 13 -9 23 -20z m829
-12 c-5 -8 -2 -9 9 -5 24 9 21 0 -3 -13 -28 -15 -49 -1 -25 17 23 16 28 17 19
1z m-729 -56 c-5 -5 -63 26 -69 37 -4 5 12 0 33 -12 22 -12 38 -23 36 -25z
m-360 -111 c5 -10 4 -12 -3 -7 -19 11 -34 86 -26 125 7 33 8 30 14 -34 3 -39
10 -77 15 -84z m1050 139 c4 -6 -1 -7 -11 -3 -12 4 -15 3 -10 -5 4 -7 3 -12
-3 -12 -16 0 -22 18 -9 23 20 8 26 8 33 -3z m-746 -26 c14 -12 -19 -1 -35 12
-18 14 -18 14 6 3 14 -6 27 -13 29 -15z m696 6 c3 -5 2 -10 -4 -10 -5 0 -13 5
-16 10 -3 6 -2 10 4 10 5 0 13 -4 16 -10z m-30 -10 c3 -5 2 -10 -4 -10 -5 0
-13 5 -16 10 -3 6 -2 10 4 10 5 0 13 -4 16 -10z m-35 -10 c13 -8 13 -10 -2
-10 -9 0 -20 5 -23 10 -8 13 5 13 25 0z m-520 -10 c-8 -5 -22 -9 -30 -9 -10 0
-8 3 5 9 27 12 43 12 25 0z m480 0 c12 -8 11 -10 -7 -10 -12 0 -25 5 -28 10
-8 13 15 13 35 0z m-340 -15 c36 -4 110 -2 164 4 63 6 105 7 115 1 12 -8 7
-10 -19 -9 -19 0 -71 -3 -116 -7 -98 -8 -283 4 -263 17 8 5 23 7 34 5 11 -3
49 -7 85 -11z m-239 -141 c9 -11 10 -20 2 -32 -19 -30 -82 -1 -70 32 8 21 51
21 68 0z m-246 -261 c-4 -21 -12 -33 -22 -33 -10 0 -13 5 -8 18 4 9 9 33 12
52 2 19 7 42 11 50 9 22 15 -47 7 -87z"/>
<path d="M955 820 c-8 -14 3 -30 21 -30 8 0 14 9 14 20 0 21 -24 28 -35 10z"/>
</g>
</svg>
